<svg width="45" height="19" viewBox="0 0 45 19" fill="none" xmlns="http://www.w3.org/2000/svg">
<path d="M28.2558 18.1464C19.8045 18.1464 11.3696 18.1463 2.9347 18.1464C2.54827 18.1464 2.16414 18.1363 1.79869 17.9844C0.944605 17.6295 0.371218 17.0142 0.094927 16.1341C0.0342627 15.9409 0.00444568 15.7299 0.00420714 15.5271C-0.000842497 11.2348 -0.00099299 6.94251 0.00188502 2.65022C0.00231165 2.01403 0.256079 1.46678 0.665938 0.994739C0.990502 0.620937 1.37914 0.319193 1.86144 0.175828C2.13442 0.0946833 2.42037 0.0167321 2.70185 0.0115729C3.75995 -0.00782224 4.81862 0.00302365 5.87708 0.00301815C17.8365 0.00295569 29.796 0.00357587 41.7555 0.00122713C42.3524 0.00110992 42.906 0.1289 43.409 0.458289C44.0799 0.897762 44.4902 1.51487 44.6482 2.29443C44.6909 2.50507 44.6874 2.72714 44.6875 2.94398C44.6896 7.02928 44.689 11.1146 44.689 15.1999C44.689 15.7949 44.5833 16.3618 44.2472 16.8684C43.8297 17.4977 43.2511 17.9096 42.5219 18.0895C42.2727 18.151 42.0032 18.144 41.7429 18.1442C37.4873 18.1472 33.2316 18.1464 28.976 18.1464C28.7414 18.1464 28.5068 18.1464 28.2558 18.1464ZM25.775 11.8847C25.775 10.9262 25.7719 9.96771 25.7783 9.00929C25.7793 8.86196 25.7322 8.82146 25.5911 8.82667C25.3296 8.83632 25.0675 8.83008 24.8057 8.82863C24.7679 8.82842 24.7302 8.81811 24.6656 8.80846C25.0119 8.50798 25.2527 8.18058 25.3717 7.76179C25.5083 7.28166 25.4945 6.80664 25.3191 6.35221C24.9797 5.47287 24.0892 4.84597 23.1134 4.84365C22.0334 4.84107 20.9534 4.84456 19.8734 4.83996C19.7487 4.83943 19.7039 4.86653 19.7041 5.00134C19.708 7.66979 19.7076 10.3382 19.7045 13.0067C19.7044 13.1279 19.7387 13.1651 19.8618 13.1649C21.7764 13.1614 23.691 13.1617 25.6056 13.1643C25.7309 13.1645 25.7802 13.1269 25.7775 12.9956C25.7703 12.6363 25.775 12.2768 25.775 11.8847ZM9.0462 6.5241C9.0462 7.04153 9.04136 7.55904 9.04938 8.07635C9.05155 8.21655 9.00417 8.24808 8.87202 8.24748C7.81364 8.24272 6.7552 8.24101 5.69686 8.24885C5.5326 8.25007 5.48522 8.21272 5.48667 8.04315C5.49528 7.03557 5.48763 6.02786 5.49442 5.02025C5.49542 4.87189 5.44887 4.8354 5.30898 4.83964C5.00375 4.8489 4.69803 4.84249 4.39252 4.84248C4.30809 4.84248 4.22367 4.84248 4.14042 4.84248C4.14042 7.62924 4.14042 10.3874 4.14042 13.1624C4.53974 13.1624 4.92608 13.1565 5.31208 13.1653C5.45889 13.1687 5.49472 13.1182 5.49399 12.977C5.48843 11.8985 5.4943 10.82 5.48724 9.74163C5.48619 9.58064 5.53704 9.54455 5.69014 9.54546C6.7485 9.55177 7.80693 9.55146 8.8653 9.54562C9.00784 9.54483 9.05046 9.58054 9.04962 9.72682C9.04335 10.8161 9.04825 11.9055 9.0433 12.9949C9.04271 13.1245 9.08154 13.167 9.20982 13.1647C9.55887 13.1585 9.90825 13.1568 10.2572 13.1656C10.3948 13.169 10.4323 13.1241 10.4321 12.9891C10.4285 10.3365 10.4294 7.68396 10.4289 5.03138C10.4289 4.97328 10.4233 4.91518 10.4195 4.84251C10.0057 4.84251 9.60819 4.84649 9.21083 4.84017C9.0857 4.83818 9.04096 4.87082 9.04314 5.00449C9.05123 5.50002 9.04626 5.99575 9.0462 6.5241ZM35.0904 7.19497C35.0069 7.41797 34.9208 7.64005 34.8404 7.86415C34.6579 8.37274 34.4811 8.88337 34.2965 9.39121C34.1083 9.90932 33.9123 10.4246 33.722 10.942C33.5315 11.4596 33.3432 11.9779 33.1554 12.4964C33.079 12.7074 33.0066 12.9198 32.9225 13.1598C33.4148 13.1598 33.876 13.1621 34.3371 13.1553C34.3722 13.1548 34.4232 13.0957 34.4384 13.0536C34.6133 12.57 34.7798 12.0835 34.9575 11.601C34.9757 11.5517 35.0512 11.4907 35.1005 11.4904C36.2077 11.484 37.3149 11.4858 38.422 11.4849C38.5101 11.4848 38.5534 11.5167 38.583 11.6074C38.7273 12.0494 38.879 12.4893 39.0353 12.9273C39.0802 13.0532 39.113 13.1818 39.3154 13.1689C39.6794 13.1459 40.0458 13.163 40.4113 13.1617C40.4679 13.1615 40.5245 13.1522 40.602 13.1453C40.3797 12.5449 40.1627 11.9698 39.9539 11.3917C39.7005 10.6898 39.4577 9.98407 39.2034 9.2825C38.9107 8.47486 38.6077 7.67096 38.3146 6.86348C38.0876 6.23826 37.8691 5.61 37.6466 4.98315C37.6128 4.88777 37.5591 4.8376 37.4431 4.83951C36.9906 4.84696 36.5378 4.846 36.0851 4.84013C35.9705 4.83865 35.9161 4.88842 35.8836 4.98695C35.8327 5.14097 35.781 5.29482 35.7257 5.44733C35.5174 6.02197 35.3075 6.59605 35.0904 7.19497ZM18.2328 6.32798C18.2327 5.88684 18.2276 5.44561 18.2356 5.00462C18.2381 4.87062 18.1912 4.83709 18.0659 4.84021C17.7715 4.84756 17.4768 4.84257 17.1822 4.84257C17.0868 4.84257 16.9915 4.84257 16.8812 4.84257C16.8812 4.94737 16.8812 5.02265 16.8812 5.09792C16.8812 6.74812 16.8833 8.39833 16.8787 10.0485C16.8781 10.2813 16.8644 10.5175 16.8231 10.7461C16.726 11.2843 16.416 11.6523 15.8984 11.8511C15.4918 12.0074 15.0693 12.0075 14.6566 11.9511C14.1353 11.8797 13.6984 11.6385 13.4623 11.1289C13.3313 10.846 13.2967 10.5473 13.2969 10.24C13.2983 8.50263 13.2956 6.76528 13.3009 5.02795C13.3013 4.8759 13.2588 4.83392 13.1088 4.83903C12.7764 4.85034 12.443 4.85163 12.1108 4.83868C11.9474 4.83232 11.9153 4.88874 11.9157 5.04103C11.9209 6.81103 11.9181 8.58106 11.9196 10.3511C11.92 10.7997 11.9875 11.2348 12.1758 11.649C12.6196 12.6252 13.4236 13.1058 14.4402 13.2701C14.9628 13.3546 15.4887 13.3321 16.0131 13.212C16.6982 13.0552 17.2606 12.7186 17.6905 12.1669C18.1032 11.6374 18.2376 11.023 18.2346 10.3636C18.2284 9.02933 18.2328 7.69499 18.2328 6.32798ZM30.6295 11.849C30.0131 11.849 29.3968 11.8451 28.7805 11.8519C28.6426 11.8535 28.6058 11.8105 28.6072 11.6761C28.6137 11.0499 28.6101 10.4237 28.6101 9.79748C28.6101 8.2129 28.6069 6.6283 28.6146 5.04375C28.6154 4.86993 28.5607 4.83395 28.4019 4.83917C28.0695 4.8501 27.7366 4.84207 27.4039 4.84288C27.3517 4.843 27.2995 4.84865 27.2324 4.85263C27.2324 4.93783 27.2324 5.00771 27.2324 5.0776C27.2324 7.60422 27.2324 10.1308 27.2324 12.6575C27.2324 12.7827 27.2367 12.9082 27.2309 13.0331C27.2262 13.1341 27.2679 13.1642 27.3656 13.164C28.8601 13.1618 30.3545 13.1618 31.849 13.1636C31.9611 13.1638 32.0034 13.1228 32.0015 13.0092C31.9962 12.688 31.9936 12.3665 32.0022 12.0455C32.0061 11.8981 31.9622 11.8421 31.8075 11.8459C31.4259 11.8553 31.044 11.849 30.6295 11.849Z" fill="#E5FC8A"/>
<path d="M25.7254 11.8816C25.7254 12.2544 25.7207 12.6112 25.728 12.9677C25.7306 13.098 25.6812 13.1353 25.5554 13.1351C23.6346 13.1325 21.7138 13.1323 19.7929 13.1357C19.6694 13.1359 19.635 13.099 19.6352 12.9787C19.6383 10.3309 19.6386 7.683 19.6348 5.03515C19.6346 4.90137 19.6795 4.87448 19.8046 4.87501C20.8881 4.87958 21.9717 4.87611 23.0552 4.87867C24.0341 4.88098 24.9275 5.50303 25.268 6.37559C25.444 6.82651 25.4578 7.29786 25.3208 7.77429C25.2014 8.18985 24.9599 8.51472 24.6124 8.81289C24.6772 8.82246 24.7151 8.83269 24.753 8.8329C25.0157 8.83433 25.2786 8.84053 25.5409 8.83095C25.6824 8.82578 25.7297 8.86597 25.7287 9.01217C25.7223 9.96319 25.7254 10.9143 25.7254 11.8816ZM23.9087 7.73747C24.0222 7.47874 24.0573 7.22049 23.986 6.93642C23.8911 6.55814 23.5244 6.18865 23.1307 6.17655C22.4637 6.15605 21.7958 6.16445 21.1283 6.15705C21.0168 6.15581 21.0073 6.21502 21.0073 6.30096C21.0085 8.10056 21.0091 9.90015 21.0065 11.6997C21.0063 11.8191 21.0458 11.8584 21.1679 11.858C22.1749 11.8541 23.1819 11.8536 24.1889 11.8583C24.3274 11.8589 24.367 11.8121 24.3659 11.6795C24.3605 11.0202 24.3596 10.3609 24.3668 9.70162C24.3682 9.56681 24.3188 9.53866 24.1961 9.5397C23.6434 9.5444 23.0906 9.53883 22.5378 9.54413C22.4182 9.54527 22.3723 9.51319 22.3752 9.38952C22.3823 9.08165 22.3808 8.77344 22.3755 8.46549C22.3737 8.35598 22.4057 8.3064 22.5243 8.31366C22.6551 8.32167 22.7869 8.31351 22.9182 8.31581C23.3577 8.32348 23.6815 8.1335 23.9087 7.73747Z" fill="#050503"/>
<path d="M9.05444 6.53026C9.05451 6.02231 9.05943 5.53048 9.05142 5.03887C9.04926 4.90625 9.09356 4.87387 9.21745 4.87585C9.61087 4.88211 10.0045 4.87816 10.4142 4.87816C10.4179 4.95026 10.4234 5.0079 10.4234 5.06554C10.424 7.69719 10.4231 10.3288 10.4267 12.9605C10.4268 13.0943 10.3897 13.1389 10.2534 13.1355C9.90796 13.1269 9.56204 13.1285 9.21644 13.1347C9.08943 13.137 9.05099 13.0948 9.05158 12.9662C9.05648 11.8854 9.05162 10.8046 9.05783 9.72393C9.05866 9.5788 9.01647 9.54337 8.87534 9.54415C7.82746 9.54995 6.77951 9.55025 5.73163 9.544C5.58004 9.54309 5.5297 9.57889 5.53074 9.73862C5.53773 10.8085 5.53192 11.8785 5.53742 12.9484C5.53814 13.0885 5.50267 13.1386 5.35731 13.1353C4.97514 13.1266 4.59263 13.1323 4.19727 13.1323C4.19727 10.3793 4.19727 7.64291 4.19727 4.87814C4.27969 4.87814 4.36327 4.87813 4.44686 4.87814C4.74935 4.87814 5.05203 4.88451 5.35425 4.87532C5.49275 4.87111 5.53884 4.90732 5.53785 5.05451C5.53113 6.05416 5.5387 7.05392 5.53017 8.05355C5.52874 8.22177 5.57565 8.25883 5.73829 8.25762C6.78614 8.24984 7.8341 8.25153 8.88199 8.25626C9.01283 8.25685 9.05974 8.22558 9.05759 8.08648C9.04965 7.57325 9.05444 7.05983 9.05444 6.53026Z" fill="#050503"/>
<path d="M35.0893 7.19861C35.3036 6.6169 35.5146 6.04763 35.7239 5.47779C35.7795 5.32656 35.8314 5.174 35.8826 5.02126C35.9153 4.92355 35.97 4.8742 36.0852 4.87567C36.5402 4.88149 36.9953 4.88244 37.4502 4.87505C37.5668 4.87316 37.6207 4.92291 37.6547 5.01749C37.8783 5.6391 38.098 6.26211 38.3261 6.8821C38.6208 7.68283 38.9253 8.48001 39.2195 9.28089C39.4751 9.9766 39.7191 10.6764 39.9739 11.3724C40.1838 11.9457 40.4019 12.516 40.6253 13.1114C40.5475 13.1182 40.4905 13.1274 40.4336 13.1276C40.0663 13.129 39.6979 13.112 39.3321 13.1348C39.1287 13.1475 39.0957 13.0201 39.0506 12.8952C38.8935 12.4608 38.741 12.0247 38.5959 11.5863C38.5662 11.4964 38.5226 11.4648 38.4341 11.4649C37.3213 11.4657 36.2084 11.464 35.0955 11.4703C35.046 11.4706 34.97 11.5311 34.9518 11.58C34.7732 12.0585 34.6058 12.5409 34.43 13.0204C34.4147 13.0622 34.3635 13.1208 34.3282 13.1213C33.8647 13.1281 33.4011 13.1258 32.9062 13.1258C32.9908 12.8878 33.0636 12.6771 33.1404 12.4679C33.3291 11.9537 33.5185 11.4397 33.7099 10.9265C33.9012 10.4135 34.0981 9.90247 34.2874 9.3887C34.4729 8.8851 34.6506 8.37874 34.8341 7.8744C34.9149 7.65218 35.0014 7.43195 35.0893 7.19861ZM36.0839 8.36611C35.8733 8.96705 35.6627 9.56798 35.4488 10.1785C36.3394 10.1785 37.2065 10.1785 38.0945 10.1785C37.656 8.94981 37.2245 7.74083 36.793 6.53185C36.7783 6.53211 36.7637 6.53238 36.749 6.53264C36.6564 6.78765 36.5637 7.04265 36.4711 7.29768C36.3448 7.64577 36.2186 7.99389 36.0839 8.36611Z" fill="#040503"/>
<path d="M18.2779 6.36578C18.2779 7.70269 18.2735 9.02344 18.2797 10.3441C18.2827 10.9969 18.1474 11.6049 17.7317 12.1291C17.2987 12.6751 16.7324 13.0083 16.0424 13.1635C15.5143 13.2824 14.9847 13.3046 14.4584 13.221C13.4346 13.0584 12.6249 12.5827 12.1779 11.6165C11.9883 11.2065 11.9204 10.7757 11.92 10.3317C11.9184 8.57973 11.9212 6.82773 11.916 5.07576C11.9156 4.92502 11.948 4.86918 12.1124 4.87547C12.447 4.88829 12.7828 4.88702 13.1175 4.87582C13.2686 4.87076 13.3115 4.91231 13.311 5.06282C13.3057 6.78245 13.3084 8.5021 13.307 10.2218C13.3068 10.526 13.3416 10.8216 13.4736 11.1016C13.7113 11.6061 14.1513 11.8448 14.6763 11.9154C15.0919 11.9713 15.5175 11.9712 15.927 11.8165C16.4482 11.6197 16.7604 11.2554 16.8582 10.7227C16.8998 10.4965 16.9136 10.2627 16.9142 10.0323C16.9188 8.39887 16.9167 6.76547 16.9167 5.13207C16.9167 5.05757 16.9167 4.98306 16.9167 4.87932C17.0278 4.87932 17.1238 4.87932 17.2198 4.87932C17.5165 4.87932 17.8133 4.88426 18.1097 4.87699C18.236 4.87389 18.2832 4.90709 18.2807 5.03972C18.2727 5.47622 18.2778 5.91296 18.2779 6.36578Z" fill="#040503"/>
<path d="M30.6111 11.8309C31.0065 11.8309 31.3859 11.8371 31.7649 11.8278C31.9185 11.8241 31.9622 11.8796 31.9583 12.0258C31.9497 12.3444 31.9523 12.6634 31.9576 12.9821C31.9594 13.0948 31.9174 13.1354 31.8061 13.1353C30.3217 13.1335 28.8373 13.1335 27.3529 13.1357C27.2559 13.1359 27.2144 13.106 27.2191 13.0058C27.2249 12.8818 27.2206 12.7573 27.2206 12.6331C27.2206 10.1261 27.2206 7.61906 27.2206 5.11205C27.2206 5.0427 27.2206 4.97336 27.2206 4.88882C27.2872 4.88488 27.3391 4.87927 27.3909 4.87915C27.7214 4.87835 28.0521 4.88631 28.3822 4.87547C28.54 4.87029 28.5943 4.90599 28.5934 5.07846C28.5859 6.65071 28.589 8.22301 28.589 9.79529C28.589 10.4166 28.5926 11.038 28.5861 11.6593C28.5847 11.7927 28.6213 11.8353 28.7583 11.8338C29.3704 11.827 29.9826 11.8308 30.6111 11.8309Z" fill="#050503"/>
<path d="M23.9274 7.71954C23.7123 8.11248 23.3991 8.30652 22.974 8.29868C22.847 8.29634 22.7196 8.30467 22.593 8.29649C22.4784 8.28907 22.4474 8.33972 22.4492 8.45157C22.4543 8.7661 22.4557 9.0809 22.4488 9.39535C22.446 9.52167 22.4904 9.55443 22.6061 9.55326C23.1407 9.54785 23.6754 9.55354 24.21 9.54875C24.3287 9.54768 24.3765 9.57643 24.3751 9.71413C24.3682 10.3875 24.3691 11.0609 24.3743 11.7343C24.3753 11.8697 24.337 11.9175 24.2031 11.9169C23.2291 11.9121 22.2551 11.9126 21.2812 11.9166C21.163 11.9171 21.1248 11.8768 21.125 11.755C21.1275 9.9169 21.127 8.07883 21.1258 6.24076C21.1258 6.15298 21.135 6.09251 21.2429 6.09377C21.8884 6.10133 22.5344 6.09275 23.1795 6.11369C23.5603 6.12605 23.915 6.50344 24.0068 6.88981C24.0758 7.17995 24.0418 7.44372 23.9274 7.71954Z" fill="#E3F988"/>
<path d="M36.1022 8.32704C36.2291 7.96592 36.3519 7.61688 36.4747 7.26786C36.5647 7.01215 36.6549 6.75648 36.7449 6.50079C36.7592 6.50053 36.7735 6.50026 36.7878 6.5C37.2074 7.71219 37.627 8.92439 38.0535 10.1564C37.1898 10.1564 36.3466 10.1564 35.4805 10.1564C35.6886 9.5442 35.8934 8.94166 36.1022 8.32704Z" fill="#E0F687"/>
</svg>
