<svg width="28" height="38" viewBox="0 0 28 38" fill="none" xmlns="http://www.w3.org/2000/svg">
<path d="M0 35.152C0 34.992 0.0159736 34.832 0.0479736 34.672C0.0799736 34.512 0.127986 34.352 0.191986 34.192L12.224 2.4C12.48 1.632 12.816 1.04 13.232 0.624001C13.68 0.208 14.272 0 15.008 0C16.384 0 17.344 0.8 17.888 2.4L27.776 30.192C27.84 30.352 27.888 30.512 27.92 30.672C27.952 30.832 27.968 30.992 27.968 31.152C27.968 31.76 27.76 32.24 27.344 32.592C26.96 32.944 26.496 33.12 25.952 33.12C24.928 33.12 24.24 32.608 23.888 31.584L21.68 25.296H8.28799L4.07999 35.584C3.72799 36.608 3.03999 37.12 2.01599 37.12C1.47199 37.12 0.991989 36.944 0.575989 36.592C0.191989 36.24 0 35.76 0 35.152ZM20.288 21.36L15.104 6.528H14.96L9.67999 21.36H20.288Z" fill="#3E3E3E"/>
</svg>
