<svg width="26" height="34" viewBox="0 0 26 34" fill="none" xmlns="http://www.w3.org/2000/svg">
<path d="M0 31.152C0 30.992 0.0159736 30.832 0.0479736 30.672C0.0799736 30.512 0.127986 30.352 0.191986 30.192L10.224 2.4C10.48 1.632 10.816 1.04 11.232 0.624001C11.68 0.208 12.272 0 13.008 0C14.384 0 15.344 0.8 15.888 2.4L25.776 30.192C25.84 30.352 25.888 30.512 25.92 30.672C25.952 30.832 25.968 30.992 25.968 31.152C25.968 31.76 25.76 32.24 25.344 32.592C24.96 32.944 24.496 33.12 23.952 33.12C22.928 33.12 22.24 32.608 21.888 31.584L19.68 25.296H6.28799L4.07999 31.584C3.72799 32.608 3.03999 33.12 2.01599 33.12C1.47199 33.12 0.991989 32.944 0.575989 32.592C0.191989 32.24 0 31.76 0 31.152ZM18.288 21.36L13.104 6.528H12.96L7.67999 21.36H18.288Z" fill="#3E3E3E"/>
</svg>
