<svg width="32" height="42" viewBox="0 0 32 42" fill="none" xmlns="http://www.w3.org/2000/svg">
<g filter="url(#filter0_d_767_204)">
<path d="M4.91199 25.968C4.71999 25.392 4.56001 24.816 4.43201 24.24C4.33601 23.632 4.23998 22.976 4.14398 22.272C4.07998 21.568 4.032 20.784 4 19.92C4 19.024 4 18 4 16.848C4 15.696 4 14.688 4 13.824C4.032 12.928 4.07998 12.128 4.14398 11.424C4.23998 10.72 4.33601 10.08 4.43201 9.504C4.56001 8.896 4.71999 8.304 4.91199 7.728C5.74399 5.232 7.088 3.328 8.944 2.016C10.8 0.672 13.136 0 15.952 0C18.416 0 20.512 0.48 22.24 1.44C24 2.4 25.296 3.68 26.128 5.28C26.352 5.728 26.464 6.16 26.464 6.576C26.464 7.184 26.272 7.664 25.888 8.016C25.504 8.368 25.04 8.544 24.496 8.544C23.696 8.544 23.056 8.144 22.576 7.344C21.136 5.104 18.928 3.984 15.952 3.984C14.064 3.984 12.56 4.448 11.44 5.376C10.352 6.272 9.56798 7.488 9.08798 9.024C8.95998 9.408 8.84798 9.84 8.75198 10.32C8.65598 10.768 8.57599 11.296 8.51199 11.904C8.44799 12.512 8.39998 13.216 8.36798 14.016C8.33598 14.816 8.32001 15.76 8.32001 16.848C8.32001 17.936 8.33598 18.88 8.36798 19.68C8.39998 20.48 8.44799 21.184 8.51199 21.792C8.57599 22.4 8.65598 22.944 8.75198 23.424C8.84798 23.872 8.95998 24.288 9.08798 24.672C9.56798 26.208 10.352 27.44 11.44 28.368C12.56 29.264 14.064 29.712 15.952 29.712C17.744 29.712 19.248 29.312 20.464 28.512C21.68 27.68 22.544 26.464 23.056 24.864C23.312 24.128 23.472 23.344 23.536 22.512C23.632 21.648 23.68 20.816 23.68 20.016C23.68 19.824 23.584 19.728 23.392 19.728H18.4C17.76 19.728 17.248 19.536 16.864 19.152C16.48 18.768 16.288 18.288 16.288 17.712C16.288 17.168 16.48 16.704 16.864 16.32C17.248 15.936 17.76 15.744 18.4 15.744H25.984C26.592 15.744 27.072 15.92 27.424 16.272C27.776 16.624 27.952 17.104 27.952 17.712V18.624C27.952 19.808 27.872 21.056 27.712 22.368C27.584 23.68 27.36 24.832 27.04 25.824C26.208 28.384 24.848 30.336 22.96 31.68C21.072 33.024 18.736 33.696 15.952 33.696C13.136 33.696 10.8 33.04 8.944 31.728C7.088 30.384 5.74399 28.464 4.91199 25.968Z" fill="#3E3E3E"/>
</g>
<defs>
<filter id="filter0_d_767_204" x="0" y="0" width="31.9521" height="41.6958" filterUnits="userSpaceOnUse" color-interpolation-filters="sRGB">
<feFlood flood-opacity="0" result="BackgroundImageFix"/>
<feColorMatrix in="SourceAlpha" type="matrix" values="0 0 0 0 0 0 0 0 0 0 0 0 0 0 0 0 0 0 127 0" result="hardAlpha"/>
<feOffset dy="4"/>
<feGaussianBlur stdDeviation="2"/>
<feComposite in2="hardAlpha" operator="out"/>
<feColorMatrix type="matrix" values="0 0 0 0 0 0 0 0 0 0 0 0 0 0 0 0 0 0 0.25 0"/>
<feBlend mode="normal" in2="BackgroundImageFix" result="effect1_dropShadow_767_204"/>
<feBlend mode="normal" in="SourceGraphic" in2="effect1_dropShadow_767_204" result="shape"/>
</filter>
</defs>
</svg>
