<svg width="18" height="33" viewBox="0 0 18 33" fill="none" xmlns="http://www.w3.org/2000/svg">
<path d="M0 2.304C0 1.568 0.191989 1.008 0.575989 0.624001C0.959989 0.208 1.472 0 2.112 0C2.752 0 3.26398 0.208 3.64798 0.624001C4.06398 1.008 4.27197 1.568 4.27197 2.304V28.608C4.27197 28.8 4.368 28.896 4.56 28.896H15.72C16.36 28.896 16.872 29.088 17.256 29.472C17.64 29.856 17.832 30.32 17.832 30.864C17.832 31.44 17.64 31.92 17.256 32.304C16.872 32.688 16.36 32.88 15.72 32.88H2.064C1.424 32.88 0.911985 32.688 0.527985 32.304C0.175985 31.92 0 31.408 0 30.768V2.304Z" fill="#3E3E3E"/>
</svg>
