<svg width="23" height="33" viewBox="0 0 23 33" fill="none" xmlns="http://www.w3.org/2000/svg">
<path d="M0 1.92C0 1.344 0.159981 0.879998 0.47998 0.527999C0.83198 0.176 1.31198 0 1.91998 0H12C13.632 0 15.088 0.24 16.368 0.719999C17.68 1.168 18.784 1.824 19.68 2.688C20.576 3.552 21.264 4.592 21.744 5.808C22.224 6.992 22.464 8.304 22.464 9.744C22.464 11.184 22.224 12.512 21.744 13.728C21.264 14.912 20.576 15.936 19.68 16.8C18.784 17.664 17.68 18.336 16.368 18.816C15.088 19.264 13.632 19.488 12 19.488H4.56C4.368 19.488 4.27197 19.584 4.27197 19.776V30.576C4.27197 31.312 4.07998 31.888 3.69598 32.304C3.31198 32.688 2.79997 32.88 2.15997 32.88C1.51997 32.88 0.991989 32.688 0.575989 32.304C0.191989 31.888 0 31.312 0 30.576V1.92ZM11.856 15.504C13.872 15.504 15.44 14.992 16.56 13.968C17.68 12.944 18.24 11.536 18.24 9.744C18.24 7.952 17.68 6.544 16.56 5.52C15.44 4.496 13.872 3.984 11.856 3.984H4.56C4.368 3.984 4.27197 4.08 4.27197 4.272V15.216C4.27197 15.408 4.368 15.504 4.56 15.504H11.856Z" fill="#3E3E3E"/>
</svg>
