<svg viewBox="0 0 483 540" fill="none" xmlns="http://www.w3.org/2000/svg">
<path d="M197.174 0C246.063 3.55512e-05 287.286 13.1139 319.149 37.9238C319.293 38.0353 319.437 38.1478 319.581 38.2598C319.707 38.3574 319.832 38.4557 319.958 38.5537C320.118 38.6773 320.277 38.8018 320.437 38.926C320.581 39.0374 320.724 39.1502 320.868 39.2621C320.986 39.3539 321.104 39.4462 321.223 39.5383C321.394 39.6705 321.564 39.8033 321.735 39.9361C321.858 40.0317 321.981 40.1281 322.105 40.2241C322.267 40.3497 322.429 40.4761 322.591 40.6023C322.735 40.7135 322.878 40.8257 323.021 40.9374C323.14 41.0297 323.259 41.1229 323.378 41.2156C323.546 41.3452 323.713 41.4753 323.88 41.6055C324.038 41.7275 324.195 41.8504 324.352 41.9729C324.465 42.0605 324.578 42.1486 324.691 42.2365C324.852 42.3614 325.013 42.4872 325.174 42.6127C325.294 42.7054 325.413 42.7989 325.532 42.8919C325.7 43.0215 325.867 43.1516 326.034 43.2818C326.17 43.3865 326.304 43.4922 326.439 43.5973C326.564 43.6942 326.689 43.792 326.814 43.8892C326.973 44.0129 327.133 44.1373 327.292 44.2615C327.431 44.3693 327.57 44.4776 327.709 44.5858C327.869 44.7097 328.029 44.8337 328.189 44.9581C328.331 45.0686 328.473 45.1803 328.615 45.2912C328.733 45.3824 328.85 45.4741 328.968 45.5655C329.128 45.6892 329.287 45.8136 329.446 45.9378C329.599 46.056 329.751 46.1748 329.904 46.2935C330.021 46.3848 330.139 46.4762 330.257 46.5678C330.417 46.6916 330.576 46.8167 330.735 46.9411C330.856 47.0347 330.977 47.1292 331.098 47.2232C331.274 47.3597 331.45 47.4965 331.626 47.6337C331.773 47.7472 331.919 47.8616 332.065 47.9756C332.18 48.0651 332.296 48.1543 332.411 48.2441C332.571 48.3679 332.73 48.4929 332.89 48.6173C333.034 48.7293 333.178 48.842 333.322 48.9544C333.426 49.0348 333.53 49.1156 333.634 49.1964C333.842 49.3578 334.051 49.5198 334.259 49.6823C334.344 49.7483 334.429 49.815 334.514 49.8812C334.687 50.0154 334.86 50.1499 335.033 50.2848C335.178 50.3968 335.322 50.5094 335.466 50.6218C335.59 50.718 335.714 50.8144 335.838 50.9109C336 51.0364 336.162 51.1629 336.323 51.289C336.468 51.401 336.612 51.5136 336.756 51.6261C336.875 51.7184 336.994 51.8107 337.113 51.9033C337.289 52.0397 337.465 52.1767 337.641 52.3138C337.781 52.4228 337.921 52.5326 338.062 52.642C338.181 52.7349 338.301 52.828 338.421 52.9212C338.585 53.0481 338.748 53.1758 338.911 53.3033C339.03 53.3957 339.149 53.4879 339.268 53.5806C339.436 53.7107 339.604 53.8417 339.771 53.9725C339.912 54.0811 340.052 54.1897 340.191 54.2987C340.32 54.3982 340.448 54.4977 340.576 54.5975C340.74 54.7244 340.903 54.8521 341.066 54.9796C341.213 55.0932 341.359 55.2075 341.505 55.3215C341.626 55.4158 341.748 55.5101 341.869 55.6047C342.028 55.728 342.187 55.8521 342.346 55.976C342.489 56.0872 342.632 56.1984 342.775 56.3101C342.899 56.406 343.023 56.5018 343.146 56.5981C343.317 56.7307 343.488 56.8636 343.659 56.9968C343.804 57.1089 343.948 57.2213 344.092 57.3339C344.206 57.4228 344.321 57.5121 344.435 57.6013C344.6 57.7293 344.765 57.8578 344.93 57.9864C345.058 58.0857 345.185 58.1854 345.313 58.2852C345.473 58.4087 345.632 58.5324 345.791 58.6565C345.935 58.7685 346.079 58.881 346.223 58.9935C346.341 59.0843 346.458 59.1747 346.575 59.2659C346.745 59.3978 346.915 59.5301 347.085 59.6627C347.235 59.7791 347.384 59.8964 347.534 60.0134C347.649 60.1024 347.763 60.1916 347.878 60.2808C348.044 60.4103 348.211 60.5398 348.378 60.6698C348.495 60.7608 348.612 60.8518 348.729 60.9431C348.893 61.0703 349.057 61.1975 349.22 61.3252C349.37 61.441 349.519 61.5567 349.668 61.673C349.789 61.7674 349.91 61.8624 350.032 61.9571C350.192 62.0817 350.353 62.2062 350.513 62.3314C350.658 62.4435 350.802 62.5559 350.946 62.6684C351.071 62.7655 351.196 62.8629 351.321 62.9604C351.488 63.0901 351.655 63.2199 351.822 63.3503C351.939 63.4413 352.056 63.5323 352.173 63.6236C352.333 63.7471 352.492 63.8699 352.651 63.994C352.801 64.1105 352.951 64.2277 353.1 64.3447C353.225 64.4417 353.35 64.5383 353.475 64.6357C353.643 64.7657 353.81 64.8959 353.977 65.0266C354.115 65.1333 354.251 65.2408 354.388 65.3479C354.513 65.4444 354.637 65.5401 354.761 65.6369C354.925 65.7637 355.088 65.8907 355.251 66.0181C355.373 66.1131 355.496 66.2078 355.618 66.3032C355.777 66.4268 355.936 66.5503 356.095 66.6745C356.245 66.7904 356.394 66.9068 356.543 67.0232C356.657 67.1123 356.772 67.2014 356.886 67.2907C357.059 67.425 357.232 67.5594 357.405 67.6944C357.547 67.8049 357.69 67.9154 357.832 68.0265C357.956 68.1234 358.081 68.2202 358.206 68.3175C358.365 68.441 358.524 68.5647 358.682 68.6888C358.801 68.781 358.92 68.8725 359.038 68.965C359.212 69.0999 359.386 69.2351 359.559 69.3706C359.701 69.4813 359.844 69.5917 359.986 69.7028C360.111 69.7997 360.235 69.8965 360.36 69.9937C360.519 70.1174 360.679 70.2408 360.837 70.3651C360.976 70.4727 361.114 70.5803 361.252 70.6884C361.377 70.785 361.501 70.8814 361.625 70.9784C361.793 71.1084 361.96 71.2385 362.127 71.3693C362.246 71.4613 362.365 71.5531 362.483 71.6455C362.656 71.7802 362.83 71.9148 363.002 72.0502C363.137 72.1547 363.272 72.2587 363.406 72.3637C363.53 72.4606 363.655 72.5574 363.78 72.6546C363.947 72.7848 364.115 72.9148 364.282 73.0455C364.399 73.1365 364.516 73.2266 364.633 73.3179C364.804 73.4506 364.975 73.5833 365.145 73.7167C365.28 73.8216 365.415 73.9268 365.549 74.0321C365.676 74.1308 365.803 74.229 365.93 74.328C366.099 74.4594 366.268 74.5908 366.437 74.7228C366.584 74.8372 366.732 74.9508 366.878 75.0657C366.993 75.1551 367.108 75.2445 367.223 75.3342C367.383 75.4587 367.544 75.5832 367.703 75.7084C367.83 75.8071 367.958 75.9052 368.084 76.0043C368.25 76.1334 368.417 76.2625 368.582 76.3923C368.732 76.509 368.883 76.6248 369.033 76.742C369.137 76.823 369.241 76.9037 369.345 76.985C369.516 77.118 369.687 77.2511 369.858 77.3847C370.002 77.4969 370.146 77.609 370.29 77.7217C370.576 77.9429 370.862 78.1649 371.147 78.3879C371.279 78.4905 371.411 78.5926 371.542 78.6956C371.844 78.9286 372.145 79.1629 372.445 79.398C372.577 79.5007 372.709 79.6025 372.841 79.7057C373.125 79.9254 373.409 80.1464 373.692 80.3679C373.93 80.5521 374.168 80.737 374.405 80.9225C374.628 81.0959 374.852 81.2691 375.075 81.4437C375.299 81.6178 375.524 81.7926 375.748 81.9678C375.885 82.0743 376.022 82.1803 376.159 82.2872C376.507 82.5557 376.854 82.8262 377.199 83.0974C377.333 83.2015 377.467 83.3045 377.601 83.409C377.69 83.4787 377.78 83.5487 377.869 83.6186C377.977 83.7022 378.085 83.7866 378.193 83.8704C378.219 83.8905 378.245 83.9101 378.27 83.9302C378.633 84.2099 378.994 84.491 379.355 84.7737C379.569 84.9395 379.782 85.1056 379.996 85.2724C380.017 85.2886 380.037 85.3051 380.058 85.3214C380.203 85.4331 380.347 85.5462 380.491 85.6584C380.635 85.7699 380.779 85.8825 380.923 85.9944C381.057 86.0983 381.191 86.2027 381.325 86.307C381.48 86.4265 381.633 86.5474 381.788 86.6675C381.922 86.7713 382.056 86.8758 382.19 86.98C382.322 87.0818 382.453 87.1845 382.585 87.2867C382.853 87.4937 383.119 87.7031 383.386 87.9117C383.575 88.0571 383.762 88.2035 383.95 88.3497C384.07 88.4424 384.189 88.5358 384.309 88.6289C384.454 88.7405 384.598 88.8529 384.742 88.9649C384.953 89.1283 385.163 89.2934 385.374 89.4577C385.461 89.5248 385.547 89.5923 385.633 89.6595C385.793 89.7831 385.953 89.9077 386.112 90.0318C386.229 90.1225 386.346 90.2142 386.462 90.3052C386.607 90.4168 386.751 90.5291 386.895 90.6412C387.067 90.7739 387.238 90.9076 387.409 91.0409C387.524 91.1298 387.638 91.2193 387.752 91.3084C387.924 91.4412 388.096 91.5746 388.267 91.7081C388.384 91.7985 388.5 91.8898 388.617 91.9805C388.761 92.0921 388.905 92.2044 389.049 92.3165C389.326 92.5303 389.601 92.7457 389.876 92.9612C390.028 93.0784 390.179 93.1962 390.331 93.3139C390.494 93.4405 390.658 93.5678 390.821 93.695C390.94 93.7869 391.058 93.88 391.176 93.9723C391.362 94.116 391.548 94.2607 391.733 94.4053C391.839 94.4876 391.945 94.5706 392.051 94.6532C392.225 94.7873 392.398 94.922 392.571 95.0568C392.685 95.1455 392.799 95.2353 392.913 95.3243C393.053 95.432 393.191 95.5404 393.33 95.6485C393.519 95.7944 393.707 95.9408 393.895 96.0875C393.999 96.1675 394.101 96.2482 394.204 96.3285C394.367 96.4544 394.53 96.5811 394.692 96.7076C394.817 96.8046 394.942 96.9023 395.067 96.9996C395.202 97.1044 395.338 97.2097 395.473 97.315C395.667 97.4651 395.861 97.6158 396.054 97.7667C396.156 97.8453 396.256 97.9249 396.358 98.0038C396.497 98.1112 396.635 98.2192 396.774 98.3271C396.942 98.4573 397.11 98.5881 397.278 98.719C397.394 98.8091 397.51 98.8999 397.626 98.9903C397.82 99.1403 398.013 99.2912 398.207 99.442C398.308 99.5206 398.409 99.6002 398.51 99.6791C398.65 99.7871 398.79 99.8949 398.929 100.003C399.097 100.133 399.264 100.265 399.432 100.395C399.548 100.485 399.664 100.576 399.781 100.667C399.962 100.807 400.144 100.949 400.325 101.09C400.433 101.174 400.541 101.258 400.649 101.343C400.817 101.473 400.985 101.604 401.153 101.735C401.269 101.825 401.385 101.915 401.501 102.006C401.649 102.121 401.798 102.236 401.946 102.351C402.099 102.47 402.253 102.59 402.407 102.709C402.56 102.829 402.714 102.948 402.868 103.068C402.986 103.16 403.104 103.253 403.223 103.345C403.383 103.469 403.543 103.594 403.702 103.718C454.52 143.083 483 211.021 483 302.307C483 452.938 405.455 540 277.954 540C212.204 540 159.782 517.116 124.302 474.515C124.159 474.344 124.016 474.174 123.873 474.003C123.778 473.889 123.684 473.775 123.589 473.661C123.444 473.488 123.299 473.315 123.155 473.141C123.033 472.995 122.911 472.849 122.789 472.702C122.66 472.548 122.53 472.394 122.401 472.239C122.277 472.091 122.153 471.942 122.029 471.793C121.905 471.644 121.78 471.495 121.656 471.346C121.532 471.198 121.408 471.05 121.285 470.902C121.141 470.73 120.998 470.558 120.855 470.386C120.758 470.27 120.66 470.154 120.563 470.038C120.43 469.879 120.298 469.72 120.166 469.561C120.015 469.381 119.864 469.201 119.714 469.021C119.614 468.901 119.515 468.782 119.415 468.662C119.301 468.526 119.188 468.391 119.075 468.255C118.938 468.091 118.801 467.927 118.664 467.764C118.516 467.586 118.367 467.408 118.219 467.23C118.11 467.099 118 466.968 117.891 466.837C117.784 466.709 117.677 466.581 117.57 466.453C117.426 466.281 117.283 466.11 117.14 465.938C117.002 465.774 116.866 465.61 116.729 465.446C116.611 465.304 116.493 465.162 116.374 465.02C116.276 464.903 116.178 464.786 116.081 464.669C115.934 464.494 115.788 464.32 115.642 464.145C115.497 463.972 115.354 463.799 115.209 463.625C115.101 463.496 114.993 463.366 114.885 463.236C114.777 463.108 114.669 462.978 114.562 462.849C114.422 462.683 114.284 462.516 114.145 462.35C114.001 462.179 113.859 462.008 113.716 461.836C113.606 461.705 113.497 461.574 113.387 461.443C113.262 461.294 113.138 461.144 113.013 460.995C112.905 460.866 112.797 460.737 112.689 460.608C112.516 460.402 112.344 460.195 112.171 459.988C112.071 459.869 111.972 459.749 111.873 459.629C111.766 459.502 111.661 459.375 111.555 459.248C111.417 459.084 111.281 458.92 111.144 458.756C111 458.585 110.857 458.414 110.714 458.242C110.604 458.11 110.494 457.978 110.384 457.846C110.26 457.699 110.137 457.551 110.014 457.403C109.903 457.271 109.792 457.138 109.68 457.004C109.406 456.679 109.134 456.351 108.862 456.023C108.737 455.874 108.612 455.725 108.487 455.575C108.36 455.424 108.235 455.272 108.109 455.12C107.986 454.974 107.864 454.828 107.741 454.682C107.625 454.543 107.509 454.403 107.393 454.263C107.261 454.106 107.129 453.949 106.998 453.791C106.748 453.494 106.5 453.196 106.252 452.897C105.995 452.592 105.739 452.285 105.483 451.977C105.241 451.688 104.998 451.398 104.757 451.108C104.625 450.95 104.493 450.792 104.361 450.633C104.075 450.293 103.789 449.952 103.505 449.61C103.421 449.509 103.338 449.408 103.254 449.307C103.126 449.155 102.999 449.003 102.872 448.85C102.591 448.515 102.31 448.18 102.03 447.842C101.781 447.545 101.532 447.247 101.284 446.948C101.159 446.798 101.034 446.65 100.91 446.5C100.677 446.223 100.446 445.946 100.215 445.668C99.9432 445.345 99.6719 445.022 99.4024 444.696C99.2991 444.573 99.1971 444.449 99.0941 444.326C98.8229 444.004 98.5528 443.68 98.2837 443.355C98.1631 443.211 98.0417 443.067 97.9215 442.922C97.795 442.77 97.6678 442.62 97.5418 442.467C97.4113 442.311 97.2803 442.155 97.1503 441.998C97.032 441.856 96.9129 441.715 96.795 441.573C96.6729 441.427 96.5506 441.281 96.4289 441.134C96.304 440.985 96.1785 440.835 96.054 440.685C95.9459 440.557 95.8388 440.427 95.7311 440.298C95.4453 439.959 95.1611 439.618 94.8776 439.276C94.7723 439.149 94.6664 439.024 94.5614 438.897C94.4202 438.728 94.2783 438.56 94.1376 438.39C94.0245 438.254 93.9108 438.119 93.798 437.983C93.6709 437.831 93.543 437.679 93.4163 437.527C93.2857 437.37 93.1549 437.214 93.0248 437.057C92.9104 436.921 92.7952 436.784 92.6812 436.647C92.5346 436.471 92.3878 436.296 92.2418 436.12C92.1436 436.002 92.045 435.885 91.9472 435.767C91.7876 435.576 91.6274 435.386 91.4685 435.194C91.3765 435.084 91.2843 434.973 91.1925 434.863C91.0417 434.682 90.8905 434.502 90.7403 434.321C90.6449 434.207 90.5488 434.093 90.4536 433.978C90.3189 433.817 90.1835 433.657 90.0493 433.495C89.8955 433.311 89.7415 433.127 89.5883 432.943C89.5022 432.839 89.4158 432.737 89.3299 432.633C89.1719 432.444 89.0135 432.256 88.8562 432.066C88.7564 431.946 88.6562 431.827 88.5567 431.707C88.4042 431.525 88.2515 431.343 88.0996 431.16C88.0047 431.046 87.9095 430.933 87.8148 430.819C87.6804 430.658 87.5454 430.498 87.4116 430.337C87.2744 430.173 87.1371 430.009 87.0005 429.844C86.8797 429.699 86.7587 429.555 86.6383 429.41C86.5192 429.267 86.3999 429.125 86.2811 428.982C86.1588 428.835 86.0359 428.69 85.914 428.543C85.78 428.382 85.6463 428.222 85.5127 428.061C85.4016 427.928 85.2898 427.795 85.179 427.662C85.0236 427.476 84.8678 427.291 84.7131 427.105C84.6195 426.993 84.5255 426.881 84.4322 426.769C84.289 426.597 84.1461 426.426 84.0035 426.254C83.8769 426.103 83.7499 425.952 83.6237 425.8C83.5026 425.655 83.3813 425.51 83.2606 425.365C83.1326 425.212 83.0045 425.059 82.8769 424.905C82.7563 424.761 82.6351 424.617 82.5148 424.472C82.385 424.317 82.2555 424.161 82.1262 424.006C82.0058 423.862 81.885 423.718 81.7651 423.574C81.6495 423.436 81.5337 423.298 81.4186 423.159C81.2779 422.991 81.1369 422.823 80.9967 422.655C80.8756 422.51 80.7544 422.365 80.6336 422.22C80.4901 422.048 80.3468 421.877 80.2039 421.704C80.1125 421.595 80.021 421.486 79.9299 421.376C79.7826 421.2 79.6351 421.025 79.4884 420.848C79.3679 420.704 79.2474 420.56 79.1273 420.415C79.0177 420.284 78.9077 420.154 78.7984 420.022C78.64 419.833 78.4814 419.644 78.3237 419.454C78.231 419.343 78.1383 419.232 78.0457 419.121C77.891 418.936 77.7369 418.751 77.5828 418.565C77.4875 418.451 77.392 418.338 77.297 418.223C77.1342 418.029 76.9716 417.835 76.8096 417.64C76.7231 417.536 76.6365 417.433 76.5502 417.329C76.4094 417.161 76.2686 416.993 76.1283 416.824C76.0018 416.673 75.8757 416.522 75.7496 416.37C75.6367 416.235 75.5234 416.1 75.4109 415.965C75.256 415.78 75.1012 415.595 74.947 415.41C74.8512 415.295 74.7557 415.181 74.6602 415.066C74.5026 414.878 74.3453 414.689 74.1884 414.501C74.0936 414.387 73.9982 414.274 73.9036 414.161C73.7664 413.997 73.6292 413.833 73.4925 413.669C73.3659 413.518 73.2399 413.366 73.1138 413.214C72.9824 413.057 72.8512 412.9 72.7203 412.743C72.5985 412.597 72.4766 412.452 72.3552 412.306C72.2344 412.162 72.1134 412.018 71.9931 411.873C71.8654 411.721 71.7386 411.567 71.6113 411.414C71.4975 411.279 71.3832 411.143 71.2698 411.007C71.1106 410.817 70.9525 410.626 70.7941 410.436C70.7075 410.332 70.621 410.229 70.5347 410.125C70.3949 409.958 70.255 409.792 70.1158 409.624C69.9787 409.461 69.8422 409.297 69.7057 409.133C69.5934 408.999 69.481 408.865 69.369 408.73C69.237 408.573 69.1051 408.415 68.9736 408.257C68.8529 408.113 68.7327 407.968 68.6124 407.824C68.4804 407.666 68.3485 407.509 68.217 407.351C68.0899 407.199 67.9629 407.047 67.8363 406.895C67.7324 406.771 67.6286 406.647 67.525 406.523C67.3825 406.353 67.2402 406.183 67.0983 406.012C66.9723 405.862 66.8469 405.711 66.7214 405.561C66.5949 405.41 66.4687 405.258 66.3427 405.107C66.2197 404.96 66.0972 404.813 65.9746 404.666C65.8478 404.515 65.7212 404.363 65.5949 404.212C65.4627 404.054 65.3312 403.896 65.1995 403.737C65.0907 403.608 64.982 403.478 64.8735 403.347C64.7278 403.174 64.5822 403 64.437 402.825C64.3391 402.708 64.242 402.591 64.1443 402.474C63.984 402.282 63.8234 402.091 63.6638 401.899C63.5705 401.788 63.4779 401.676 63.3848 401.564C63.2243 401.373 63.0641 401.181 62.9043 400.989C62.8108 400.878 62.7175 400.766 62.6243 400.654C62.4857 400.489 62.3474 400.323 62.2093 400.158C62.0828 400.007 61.9567 399.855 61.8305 399.704C61.7232 399.576 61.6166 399.447 61.5095 399.319C61.3489 399.128 61.1888 398.936 61.0289 398.744C60.9356 398.632 60.8431 398.52 60.75 398.409C60.5866 398.214 60.4233 398.019 60.2606 397.824C60.1798 397.727 60.0995 397.631 60.0189 397.534C59.8768 397.365 59.7355 397.195 59.5941 397.025C59.4608 396.867 59.3275 396.708 59.1947 396.548C59.0735 396.404 58.9534 396.258 58.8326 396.113C58.6981 395.953 58.5643 395.792 58.4303 395.631C58.3088 395.486 58.1873 395.342 58.0662 395.196C57.946 395.053 57.8268 394.909 57.707 394.765C57.5943 394.631 57.4817 394.496 57.3693 394.362C57.233 394.199 57.097 394.037 56.9612 393.874C56.827 393.714 56.6936 393.553 56.5599 393.393C56.4385 393.248 56.3177 393.103 56.1968 392.958C56.0702 392.807 55.9442 392.655 55.818 392.504C55.6886 392.35 55.5594 392.195 55.4304 392.041C55.3102 391.897 55.191 391.753 55.0712 391.609C54.9417 391.455 54.8126 391.301 54.6836 391.146C54.5763 391.018 54.4695 390.89 54.3626 390.762C54.2082 390.578 54.0543 390.394 53.9006 390.209C53.7993 390.089 53.6992 389.967 53.5982 389.846C53.4339 389.651 53.2703 389.454 53.1068 389.258C53.0218 389.157 52.9371 389.055 52.8523 388.953C52.7133 388.788 52.5749 388.622 52.4364 388.456C52.3148 388.311 52.1944 388.165 52.0732 388.02C51.9375 387.858 51.8023 387.696 51.667 387.534C51.5461 387.39 51.4255 387.245 51.3049 387.101C51.1903 386.964 51.0766 386.827 50.9623 386.69C50.8052 386.503 50.6489 386.316 50.4925 386.128C50.4012 386.019 50.3105 385.91 50.2195 385.801C49.9672 385.501 49.7162 385.2 49.4658 384.897C17.4659 346.84 0 292.212 0 223.531C9.63509e-05 81.8746 74.2976 0 197.174 0Z" fill="currentColor"/>
<path d="M157 303C157 197.477 207.897 138 288.083 138C349.063 138 387.476 173.494 399 228.654L330.817 253.596C326.496 224.817 314.012 202.273 287.603 202.273C254.952 202.273 235.266 235.849 235.266 303C235.266 370.151 254.952 404.206 287.603 404.206C314.012 404.206 326.976 380.703 330.817 351.924L399 376.866C387.476 432.026 349.063 468 288.083 468C207.897 468 157 408.523 157 303Z" fill="white"/>
</svg>
